<?xml version="1.0" encoding="UTF-8"?>
<svg xmlns="http://www.w3.org/2000/svg" xmlns:xlink="http://www.w3.org/1999/xlink" width="86pt" height="86pt" viewBox="0 0 86 86" version="1.1">
<g id="surface1">
<path style=" stroke:none;fill-rule:nonzero;fill:rgb(93.333333%,19.215686%,14.117647%);fill-opacity:1;" d="M 80.757812 23.917969 C 79.863281 20.515625 77.175781 17.828125 73.773438 16.886719 C 67.636719 15.230469 43 15.230469 43 15.230469 C 43 15.230469 18.363281 15.230469 12.183594 16.886719 C 8.777344 17.78125 6.136719 20.46875 5.195312 23.917969 C 3.582031 30.101562 3.582031 43 3.582031 43 C 3.582031 43 3.582031 55.898438 5.242188 62.082031 C 6.136719 65.484375 8.824219 68.171875 12.226562 69.113281 C 18.363281 70.769531 43 70.769531 43 70.769531 C 43 70.769531 67.636719 70.769531 73.816406 69.113281 C 77.222656 68.21875 79.863281 65.53125 80.804688 62.082031 C 82.417969 55.898438 82.417969 43 82.417969 43 C 82.417969 43 82.417969 30.101562 80.757812 23.917969 Z M 80.757812 23.917969 "/>
<path style=" stroke:none;fill-rule:nonzero;fill:rgb(100%,100%,100%);fill-opacity:1;" d="M 34.9375 54.734375 L 34.9375 31.265625 L 55.542969 43 Z M 34.9375 54.734375 "/>
</g>
</svg>
