<svg id="svg2985" xmlns="http://www.w3.org/2000/svg" viewBox="0 0 538.58 243.78"><defs><style>.cls-1{fill:#6c3c97;}</style></defs><path id="path3023" class="cls-1" d="M105.67,99.78A24,24,0,0,0,81.79,75.67H69.94v48H81.79a24,24,0,0,0,23.88-23.9m53.87,95.7H116.06l-34.51-47.9H69.94v47.8H31.63V51.79H86.52c31.64,0,57.46,21.52,57.46,48,0,16.15-9.9,30.57-25,39.39l40.53,56.31"/><path id="path3027" class="cls-1" d="M202.75,108.4c-10.12,0-18.73,13.75-18.73,30.78S192.63,170,202.75,170c10.35,0,18.94-13.77,18.94-30.79s-8.59-30.78-18.94-30.78m59,30.78a58.87,58.87,0,1,1-59-58.56,58.68,58.68,0,0,1,59,58.56"/><path id="path3031" class="cls-1" d="M351.62,83l-44.13,44.13V82.86H269.18V195.38h38.31V149.73l46.07,45.65h48.22l-58.55-58.56,48.49-48.48v66.77c0,22.17,13.34,42.63,46.91,42.63,15.94,0,30.57-9,37.68-17.22l17.22,14.86h8.18V83H463.4v72.76c-4.31,7.53-10.32,12.26-19.61,12.26S430,162.43,430,144.56V83Z"/></svg>