<?xml version="1.0" encoding="UTF-8"?>
<svg xmlns="http://www.w3.org/2000/svg" xmlns:xlink="http://www.w3.org/1999/xlink" width="86pt" height="39pt" viewBox="0 0 86 39" version="1.1">
<g id="surface1">
<path style=" stroke:none;fill-rule:nonzero;fill:rgb(42.352941%,23.529412%,59.215686%);fill-opacity:1;" d="M 16.875 15.964844 C 16.882812 13.84375 15.175781 12.117188 13.058594 12.105469 L 11.167969 12.105469 L 11.167969 19.785156 L 13.058594 19.785156 C 15.164062 19.773438 16.863281 18.066406 16.875 15.960938 M 25.476562 31.269531 L 18.53125 31.269531 L 13.023438 23.609375 L 11.167969 23.609375 L 11.167969 31.253906 L 5.050781 31.253906 L 5.050781 8.285156 L 13.816406 8.285156 C 18.867188 8.285156 22.992188 11.730469 22.992188 15.964844 C 22.992188 18.546875 21.410156 20.855469 19 22.265625 L 25.46875 31.273438 "/>
<path style=" stroke:none;fill-rule:nonzero;fill:rgb(42.352941%,23.529412%,59.215686%);fill-opacity:1;" d="M 32.375 17.34375 C 30.757812 17.34375 29.382812 19.542969 29.382812 22.265625 C 29.382812 24.988281 30.757812 27.195312 32.375 27.195312 C 34.027344 27.195312 35.398438 24.992188 35.398438 22.269531 C 35.398438 19.546875 34.027344 17.347656 32.375 17.347656 M 41.796875 22.269531 C 41.816406 26.082031 39.539062 29.53125 36.03125 31.003906 C 32.523438 32.476562 28.472656 31.6875 25.773438 29.003906 C 23.074219 26.320312 22.253906 22.269531 23.699219 18.742188 C 25.144531 15.214844 28.570312 12.910156 32.375 12.902344 C 34.867188 12.890625 37.257812 13.871094 39.027344 15.628906 C 40.792969 17.386719 41.789062 19.777344 41.796875 22.269531 "/>
<path style=" stroke:none;fill-rule:nonzero;fill:rgb(42.352941%,23.529412%,59.215686%);fill-opacity:1;" d="M 56.144531 13.277344 L 49.101562 20.339844 L 49.101562 13.257812 L 42.984375 13.257812 L 42.984375 31.253906 L 49.101562 31.253906 L 49.101562 23.953125 L 56.457031 31.253906 L 64.15625 31.253906 L 54.808594 21.886719 L 62.550781 14.132812 L 62.550781 24.8125 C 62.550781 28.359375 64.679688 31.632812 70.039062 31.632812 C 72.585938 31.632812 74.921875 30.195312 76.058594 28.878906 L 78.804688 31.253906 L 80.113281 31.253906 L 80.113281 13.277344 L 73.996094 13.277344 L 73.996094 24.917969 C 73.308594 26.121094 72.347656 26.878906 70.863281 26.878906 C 69.378906 26.878906 68.660156 25.984375 68.660156 23.125 L 68.660156 13.277344 Z M 56.144531 13.277344 "/>
</g>
</svg>
