<?xml version="1.0" encoding="UTF-8"?>
<svg xmlns="http://www.w3.org/2000/svg" xmlns:xlink="http://www.w3.org/1999/xlink" width="86pt" height="48pt" viewBox="0 0 86 48" version="1.1">
<g id="surface1">
<path style=" stroke:none;fill-rule:nonzero;fill:rgb(45.098039%,32.941176%,74.117647%);fill-opacity:1;" d="M 0.195312 48 L 85.804688 48 L 85.804688 0 L 0.195312 0 Z M 76.5 40.816406 L 73.914062 38.628906 C 72.878906 39.878906 70.707031 41.128906 68.332031 41.128906 C 63.367188 41.128906 61.402344 38.109375 61.402344 34.878906 L 61.402344 25.09375 L 54.269531 32.277344 L 62.953125 40.816406 L 55.820312 40.816406 L 48.996094 34.152344 L 48.996094 40.816406 L 43.308594 40.816406 L 43.308594 24.363281 L 48.996094 24.363281 L 48.996094 30.820312 L 55.511719 24.363281 L 67.089844 24.363281 L 67.089844 33.320312 C 67.089844 35.921875 67.710938 36.753906 69.15625 36.753906 C 70.5 36.753906 71.433594 36.027344 72.050781 34.984375 L 72.050781 24.363281 L 77.738281 24.363281 L 77.738281 40.816406 Z M 15.601562 33.527344 L 13.949219 33.527344 L 13.949219 40.605469 L 8.363281 40.605469 L 8.363281 19.367188 L 16.429688 19.367188 C 21.082031 19.367188 24.90625 22.492188 24.90625 26.445312 C 24.90625 28.839844 23.460938 30.925781 21.289062 32.277344 L 27.285156 40.605469 L 20.875 40.605469 Z M 25.21875 32.484375 C 25.21875 27.59375 29.144531 23.738281 34.003906 23.738281 C 38.863281 23.738281 42.792969 27.59375 42.792969 32.484375 C 42.792969 37.277344 38.863281 41.230469 34.003906 41.230469 C 29.144531 41.230469 25.21875 37.277344 25.21875 32.484375 Z M 31.421875 32.796875 C 31.421875 35.402344 32.660156 37.484375 34.210938 37.484375 C 35.761719 37.484375 37.003906 35.402344 37.003906 32.796875 C 37.003906 30.195312 35.761719 28.113281 34.210938 28.113281 C 32.765625 28.113281 31.421875 30.195312 31.421875 32.796875 Z M 78.875 25.300781 C 78.875 24.78125 79.289062 24.363281 79.808594 24.363281 C 80.324219 24.363281 80.738281 24.78125 80.738281 25.300781 C 80.738281 25.820312 80.324219 26.238281 79.808594 26.238281 C 79.289062 26.238281 78.875 25.820312 78.875 25.300781 Z M 14.566406 23.113281 L 14.566406 29.988281 L 16.222656 29.988281 C 18.082031 29.988281 19.53125 28.425781 19.53125 26.550781 C 19.53125 24.675781 18.082031 23.113281 16.222656 23.113281 Z M 14.566406 23.113281 "/>
</g>
</svg>
